<svg xmlns="http://www.w3.org/2000/svg" xmlns:xlink="http://www.w3.org/1999/xlink" width="500" zoomAndPan="magnify" viewBox="0 0 375 374.999991" height="500" preserveAspectRatio="xMidYMid meet" version="1.0"><defs><g/><clipPath id="57103e02ef"><rect x="0" width="243" y="0" height="257"/></clipPath></defs><g transform="matrix(1, 0, 0, 1, 67, 58)"><g clip-path="url(#57103e02ef)"><g fill="#1e293b" fill-opacity="1"><g transform="translate(0.36355, 183.388908)"><g><path d="M 164.375 -94.21875 L 164.375 -57.71875 C 160.019531 -37.726562 150.5 -22.597656 135.8125 -12.328125 C 121.132812 -2.066406 104.753906 3.0625 86.671875 3.0625 C 63.960938 3.0625 44.617188 -5.429688 28.640625 -22.421875 C 12.671875 -39.421875 4.6875 -59.953125 4.6875 -84.015625 C 4.6875 -108.492188 12.503906 -129.160156 28.140625 -146.015625 C 43.773438 -162.878906 63.285156 -171.3125 86.671875 -171.3125 C 114.003906 -171.3125 135.625 -161.722656 151.53125 -142.546875 L 126.4375 -115.015625 C 117.46875 -129.429688 104.960938 -136.640625 88.921875 -136.640625 C 77.085938 -136.640625 66.988281 -131.503906 58.625 -121.234375 C 50.269531 -110.972656 46.09375 -98.566406 46.09375 -84.015625 C 46.09375 -69.742188 50.269531 -57.539062 58.625 -47.40625 C 66.988281 -37.28125 77.085938 -32.21875 88.921875 -32.21875 C 98.703125 -32.21875 107.226562 -35.175781 114.5 -41.09375 C 121.78125 -47.007812 125.421875 -54.859375 125.421875 -64.640625 L 86.671875 -64.640625 L 86.671875 -94.21875 Z M 164.375 -94.21875 "/></g></g></g><g fill="#f97315" fill-opacity="1"><g transform="translate(169.445471, 183.388908)"><g><path d="M 35.484375 -43.640625 C 42.015625 -43.640625 47.554688 -41.363281 52.109375 -36.8125 C 56.660156 -32.257812 58.9375 -26.71875 58.9375 -20.1875 C 58.9375 -13.800781 56.660156 -8.328125 52.109375 -3.765625 C 47.554688 0.785156 42.015625 3.0625 35.484375 3.0625 C 29.097656 3.0625 23.625 0.785156 19.0625 -3.765625 C 14.507812 -8.328125 12.234375 -13.800781 12.234375 -20.1875 C 12.234375 -26.71875 14.507812 -32.257812 19.0625 -36.8125 C 23.625 -41.363281 29.097656 -43.640625 35.484375 -43.640625 Z M 35.484375 -43.640625 "/></g></g></g></g></g></svg>